<svg width="119" height="116" viewBox="0 0 119 116" fill="none" xmlns="http://www.w3.org/2000/svg">
<path d="M60.7293 101.338C60.9638 95.8669 62.1793 88.8105 68.2488 86.9477C72.3693 85.6895 76.8822 86.9282 81.0951 86.9157C89.1994 86.8903 96.5242 81.6388 100.933 75.1465C105.466 68.4814 107.564 60.0623 106.565 52.0431C106.081 48.1027 104.82 44.2548 102.748 40.8653C100.67 37.4609 97.7915 34.4704 94.8578 31.7861C88.3138 25.8185 80.5222 21.1041 72.2787 17.8818C64.1785 14.719 55.3052 12.8499 46.5817 13.764C42.5562 14.1919 38.5151 15.218 34.8784 17.0405C30.5095 19.2375 26.9299 22.7704 24.2349 26.809C18.7258 35.0739 16.5365 45.6234 17.1667 55.461C17.8117 65.2689 23.0022 74.0072 31.7532 78.659C36.3238 81.089 41.3611 82.121 46.3985 83.0788C48.9493 83.5677 51.7125 84.225 53.2721 86.4916C54.8119 88.7235 54.7787 91.5014 54.4737 94.0811C54.1989 96.305 53.6818 98.4938 53.4219 100.713C53.3719 101.108 53.5792 101.41 53.9647 101.529C55.7244 102.041 57.3947 102.781 59.2538 102.873C60.1388 102.909 60.0516 101.53 59.1665 101.494C57.4607 101.417 55.8547 100.648 54.2335 100.18C54.4161 100.457 54.5937 100.72 54.7763 100.997C55.2563 96.8604 56.8443 92.4392 55.5987 88.2899C54.0428 83.1317 49.3021 82.2238 44.6255 81.3605C39.6475 80.4325 34.7047 79.0151 30.3915 76.2692C26.276 73.6472 22.963 69.8699 20.981 65.4128C16.9134 56.286 17.9714 44.9091 21.3258 35.7112C23.0427 31.0085 25.5653 26.5494 29.1004 22.9818C32.4077 19.6461 36.4701 17.4437 40.9911 16.201C49.2912 13.912 58.22 14.8816 66.3755 17.2932C74.9166 19.824 83.0303 24.0693 90.0496 29.5337C96.3279 34.4283 102.333 40.4592 104.449 48.347C106.555 56.205 105.169 64.8824 101.259 71.9589C97.4525 78.8279 90.4628 84.9153 82.3183 85.4646C78.1545 85.749 73.9827 84.6197 69.8186 85.1759C65.2786 85.7908 61.9912 89.0128 60.5715 93.2959C59.7078 95.9043 59.452 98.6571 59.3447 101.385C59.3089 102.32 60.6935 102.223 60.7293 101.338Z" fill="#577575"/>
<path d="M58.9086 96.8981C59.3479 93.7057 59.5152 90.4634 60.2412 87.316C60.5893 85.7843 61.0956 84.2825 61.8539 82.8948C62.7212 81.3393 63.9887 80.0959 65.2462 78.8475C69.2416 74.9298 74.1257 72.0269 77.8692 67.8467C84.8414 60.044 87.2098 48.5953 85.2054 38.4637C84.0853 32.807 81.5357 27.5086 77.5805 23.2854C76.9682 22.6318 76.0521 23.6683 76.6545 24.3168C83.7947 31.9563 85.8816 43.2052 83.6535 53.2157C82.4649 58.5422 80.0257 63.5748 76.2577 67.5572C72.5094 71.5248 67.7589 74.3587 63.912 78.2273C61.5404 80.6106 59.9154 83.0595 59.0459 86.3451C58.1663 89.6998 58.0184 93.1992 57.5492 96.6238C57.4294 97.5035 58.7839 97.7876 58.9086 96.8981Z" fill="#577575"/>
<path d="M58.2842 80.7449C56.1192 64.7951 51.5367 48.4605 54.5293 32.3171C55.3957 27.6326 56.959 23.1373 59.2883 18.9892C59.7245 18.2189 58.4891 17.5989 58.053 18.3692C49.6673 33.3515 52.0476 51.091 54.7414 67.2691C55.4921 71.7883 56.2972 76.2977 56.9144 80.8364C57.022 81.7066 58.4017 81.62 58.2842 80.7449Z" fill="#577575"/>
<path d="M64.2186 70.7152C73.195 57.7358 74.7401 40.5321 71.511 25.396C71.3291 24.5257 70.0182 24.9683 70.205 25.8287C73.3211 40.4258 71.8606 57.2639 63.2012 69.7841C62.691 70.5049 63.7083 71.436 64.2186 70.7152Z" fill="#577575"/>
<path d="M63.2588 56.8572C62.288 50.4594 63.2556 43.9215 65.0832 37.7658C65.3365 36.916 63.9771 36.6418 63.7238 37.4915C61.8714 43.7461 60.8887 50.4371 61.8791 56.9438C62.0115 57.814 63.3961 57.7423 63.2588 56.8572Z" fill="#577575"/>
<path d="M51.4235 77.4244C47.52 71.4218 43.9136 65.1231 42.0485 58.1651C40.0605 50.7126 40.535 43.1606 41.9292 35.6497C42.9001 30.4118 44.3016 24.9572 47.9609 20.9203C48.565 20.259 47.5327 19.3329 46.9286 19.9942C43.7595 23.4981 42.1763 28.033 41.1371 32.5688C40.1823 36.7885 39.4745 41.1321 39.3058 45.4618C39.0046 52.7917 40.5826 59.9272 43.6546 66.5759C45.5333 70.6225 47.8177 74.4523 50.2506 78.1836C50.7441 78.9259 51.9022 78.1716 51.4235 77.4244Z" fill="#577575"/>
<path d="M45.5406 76.8473C38.8002 73.6622 33.1501 68.5265 29.7716 61.8476C25.9394 54.2485 25.3671 45.5528 28.2997 37.5652C30.0761 32.7439 32.7272 28.2999 35.0373 23.7218C35.4339 22.9316 34.2035 22.3017 33.802 23.1018C29.504 31.6159 24.2321 40.0246 25.0549 49.9713C25.6879 57.6093 28.853 64.8612 34.1415 70.4213C37.2031 73.6396 40.9083 76.1917 44.9159 78.0918C45.7313 78.464 46.351 77.2293 45.5406 76.8473Z" fill="#577575"/>
<path d="M35.3701 57.1279C33.8482 52.469 33.4641 47.4413 35.349 42.823C35.6863 42.003 34.4509 41.383 34.1136 42.2029C32.0799 47.1671 32.4043 52.5357 34.0543 57.5557C34.3301 58.4113 35.6509 57.9737 35.3701 57.1279Z" fill="#577575"/>
<path d="M50.0231 65.7156C48.4038 59.969 47.7735 54.0265 47.44 48.0845C47.3917 47.1946 46.012 47.2812 46.0603 48.171C46.3987 54.2268 47.0534 60.2929 48.7073 66.1433C48.9534 67.0088 50.2594 66.576 50.0231 65.7156Z" fill="#577575"/>
<path d="M48.1134 34.6017C48.5874 31.266 49.0515 27.9748 50.8699 25.0666C51.3357 24.3111 50.1003 23.6911 49.6346 24.4466C47.7517 27.4585 47.2528 30.893 46.7589 34.3423C46.6341 35.2071 47.9886 35.4912 48.1134 34.6017Z" fill="#577575"/>
<path d="M62.7848 28.3611C63.125 25.2674 63.7816 22.2335 64.112 19.1349C64.207 18.2552 62.8476 17.981 62.7525 18.8606C62.4123 21.9543 61.7557 24.9882 61.4254 28.0869C61.3402 28.9715 62.6847 29.2506 62.7848 28.3611Z" fill="#577575"/>
<path d="M72.8021 82.207C78.6016 78.8362 84.8902 75.7973 88.9272 70.2188C93.1724 64.349 95.2934 56.8691 94.9516 49.6616C94.7543 45.4697 93.7657 41.3504 92.2478 37.4478C91.9225 36.6168 90.6165 37.0495 90.9418 37.8805C94.3719 46.6998 94.4787 55.9285 90.5613 64.5966C88.786 68.5281 86.2006 71.8798 82.7607 74.4936C79.4248 77.0235 75.6545 78.9398 72.0471 81.0491C71.2751 81.5025 72.0351 82.6506 72.8021 82.207Z" fill="#577575"/>
<path d="M90.5872 77.3486C93.147 74.7135 95.7612 72.0686 97.7381 68.9432C99.7596 65.7535 100.798 62.1816 100.837 58.4052C100.848 57.5205 99.4685 57.607 99.4575 58.4918C99.4132 62.1545 98.3111 65.5582 96.3046 68.6194C94.4219 71.5077 91.9415 73.96 89.555 76.4224C88.9361 77.0639 89.9584 77.9851 90.5872 77.3486Z" fill="#577575"/>
</svg>
