<svg width="99" height="111" viewBox="0 0 99 111" fill="none" xmlns="http://www.w3.org/2000/svg">
<path d="M70.3281 89.7503C68.4248 96.911 58.5727 99.2901 52.1899 99.4629C48.8905 99.5536 45.0983 99.2243 42.3163 97.2917C41.2627 96.5669 40.4284 95.557 40.1175 94.293C39.7647 92.8295 40.0628 90.6379 41.062 89.4935C42.2575 88.13 44.3337 89.4024 45.5594 90.0849C47.1973 90.9931 48.8052 92.0945 50.6025 92.6506C54.3073 93.7917 58.7429 91.3086 59.6859 87.5263C60.6117 83.7937 57.8074 80.0861 54.2662 79.1403C50.4217 78.1082 46.1485 79.0839 42.3372 79.849C38.6646 80.588 34.0962 82.174 30.416 80.8286C27.7167 79.8313 25.7354 77.5924 24.5439 75.025C24.3392 74.5749 23.283 72.7112 23.6937 72.1684C23.7217 72.141 24.6825 72.3064 24.9474 72.3702C28.3287 73.27 31.615 75.5896 35.2258 75.3752C38.6095 75.1748 41.8211 72.3243 40.3642 68.8417C38.875 65.2925 35.3524 63.7332 31.957 62.6342C29.8845 61.9645 27.3207 61.1898 26.301 59.061C25.713 57.8217 25.4127 54.3408 27.1203 53.6354C28.8948 52.8976 30.9287 55.3582 32.785 55.1575C36.1209 54.8018 34.4557 48.9065 33.2122 47.4221C31.6739 45.6138 29.3001 44.692 27.1297 43.8774C24.6068 42.9318 22.0171 42.0186 19.7104 40.5833C17.2115 39.0354 15.5066 36.8272 14.8449 33.9339C14.2935 31.5229 14.6898 28.9951 15.438 26.6537C16.1292 24.4498 17.2729 21.9027 19.3686 20.6929C21.2746 19.6027 23.0884 20.1646 24.0727 22.022C25.4413 24.5858 25.6712 29.2822 28.9179 30.3298C30.4172 30.8108 32.3552 30.2682 33.4043 29.1133C34.56 27.8379 34.8706 25.9836 35.1231 24.35C35.4486 22.1863 35.5314 19.9481 36.1936 17.8545C36.9132 15.5957 38.662 14.2384 40.7711 13.2831C45.0339 11.3509 50.8212 11.9069 52.5809 16.8634C54.2549 21.5868 50.5823 25.4716 48.8609 29.5493C47.1054 33.6985 47.4543 43.1177 54.1697 40.6542C56.7269 39.7149 58.9893 37.9984 61.2598 36.5252C63.402 35.128 65.8699 33.3529 68.4857 33.0445C70.7635 32.7766 72.7691 34.8388 72.4362 37.1572C72.0729 39.6964 69.2217 41.5889 67.3123 42.9555C62.7784 46.2282 55.1803 49.8208 54.5657 56.1499C54.1665 60.2588 57.1217 63.8519 60.8285 65.2805C65.042 66.9027 70.2616 65.4676 71.5259 60.7601C72.1173 58.5773 71.9802 56.2261 72.8583 54.1238C73.6793 52.1592 75.794 50.3083 77.924 49.9061C81.2413 49.2572 82.6768 53.121 82.8935 55.7495C83.2073 59.4848 81.7589 62.9629 78.7977 65.2523C76.5518 66.9745 72.0676 69.3576 72.9047 72.8389C73.8362 76.7413 77.9508 76.0625 80.9252 75.841C82.9193 75.6972 84.3659 76.4098 84.6437 78.569C84.8915 80.4681 83.6204 82.1292 82.2994 83.3476C79.7191 85.713 76.1611 87.4816 72.7585 88.3231C71.7982 88.5557 72.0727 90.0847 73.0441 89.8466C76.5854 88.979 80.1987 87.211 82.9784 84.8312C85.5847 82.6043 87.7093 78.5918 84.9632 75.5428C82.4138 72.7006 78.4282 75.9406 75.6226 74.1294C71.4223 71.4293 78.7161 67.3799 80.4944 65.8847C83.2285 63.6094 84.5345 60.0081 84.4725 56.5078C84.4248 53.6323 83.4346 50.0056 80.5672 48.719C77.298 47.2565 73.2349 50.0534 71.7501 52.8898C70.679 54.9346 70.6727 57.2455 70.2524 59.4689C69.7022 62.3599 67.7188 64.3393 64.6627 64.4493C60.0842 64.5978 55.1597 60.4909 56.2102 55.6262C56.8964 52.477 59.8299 50.1873 62.2873 48.3623C65.0518 46.3196 68.0726 44.5783 70.6738 42.3126C72.5198 40.702 74.4007 38.5113 73.9239 35.8855C73.4993 33.509 71.5426 31.5192 69.0692 31.4974C66.4021 31.4735 63.8475 33.0983 61.6726 34.4565C59.2074 36.0105 56.8384 37.8475 54.1621 39.0232C51.97 39.9775 50.3411 39.6831 49.7634 37.1612C49.3064 35.1714 49.2833 32.9983 49.9381 31.0595C50.6734 28.8616 52.0087 26.9358 53.0413 24.8685C55.0327 20.8932 55.2649 15.9587 51.6403 12.8005C48.3881 9.95602 43.4422 10.2829 39.7567 12.0722C37.8861 12.9803 36.0826 14.2818 35.1735 16.2068C34.2701 18.1153 34.0661 20.3024 33.8139 22.3618C33.5924 24.1727 33.5735 27.0529 32.0194 28.3295C30.3923 29.6826 28.5931 28.839 27.7444 27.2042C26.3387 24.5073 26.0824 19.7 22.5801 18.7491C17.9029 17.4757 14.9141 22.9105 13.8456 26.5476C12.4709 31.2263 12.7717 36.4653 16.452 40.0498C18.3004 41.8449 20.666 42.9767 23.028 43.9593C25.5773 45.0158 28.4407 45.7274 30.7233 47.3117C31.8592 48.0927 32.7593 49.1531 33.0243 50.5492C33.1387 51.1531 33.3834 52.8476 32.9117 53.4063C32.4062 54.0089 31.3688 53.3174 30.769 53.0454C28.6391 52.0876 26.1202 51.2636 24.8972 53.9592C24.0552 55.8241 24.0307 58.2675 25.0434 60.07C26.0611 61.9112 28.0135 62.9003 29.914 63.6123C31.9136 64.3587 34.106 64.7367 35.8559 65.9889C37.2219 66.9605 38.792 68.4374 39.1306 70.155C39.5687 72.3326 37.006 73.7141 35.1503 73.8595C33.2835 74.0103 31.3021 73.1314 29.6058 72.4714C28.1517 71.9135 22.7095 68.9509 22.1241 71.9962C21.7457 73.9658 23.4452 76.6162 24.517 78.1152C25.915 80.0878 27.8879 81.6576 30.2084 82.413C33.951 83.632 38.351 82.2376 42.057 81.4824C45.9516 80.6905 50.8993 79.3188 54.7475 80.9535C56.7073 81.7879 58.2749 83.9116 58.2761 86.0678C58.2829 88.6608 56.061 90.6874 53.6634 91.247C49.6953 92.1707 46.7792 88.0915 43.0852 87.426C39.5072 86.7728 38.082 91.0639 38.4282 93.9592C38.7747 96.8269 41.0756 98.732 43.6198 99.7497C50.338 102.45 59.4643 101.041 65.5957 97.4603C68.3827 95.8324 70.88 93.4661 71.7329 90.2634C72.0438 89.2882 70.589 88.7856 70.3281 89.7503Z" fill="#9D8A69"/>
</svg>
