<svg  viewBox="0 0 30 25" xmlns="http://www.w3.org/2000/svg">
<path d="M13.9264 2.78166C14.234 1.87797 15.5121 1.87796 15.8197 2.78166L17.7879 8.5641C17.9259 8.96936 18.3065 9.24187 18.7346 9.24187H25.0014C25.9814 9.24187 26.3765 10.5051 25.5713 11.0636L20.5825 14.5235C20.2157 14.7779 20.0619 15.2448 20.2058 15.6674L22.13 21.3205C22.4408 22.2337 21.4061 23.0142 20.6134 22.4644L15.4429 18.8785C15.1002 18.6408 14.6459 18.6408 14.3031 18.8785L9.13263 22.4644C8.33996 23.0142 7.30524 22.2337 7.61607 21.3205L9.54027 15.6674C9.68414 15.2448 9.53039 14.7779 9.1635 14.5235L4.17474 11.0636C3.3695 10.5051 3.76469 9.24187 4.74463 9.24187H11.0115C11.4396 9.24187 11.8202 8.96936 11.9581 8.5641L13.9264 2.78166Z" />
</svg>
