<svg width="74" height="82" viewBox="0 0 74 82" fill="none" xmlns="http://www.w3.org/2000/svg">
<path d="M47.8476 80.647C56.2438 76.9558 64.1317 69.625 68.507 61.5818C71.5153 56.0418 74.028 47.2391 67.844 42.7546C62.4211 38.8332 54.7463 42.0036 50.3684 46.0214C45.4578 50.5419 41.4436 56.6652 39.4473 63.058C38.4622 66.2077 37.9129 69.7701 38.8563 73.022C39.842 76.4399 42.3192 78.7705 45.5299 80.157C47.2747 80.9131 48.1092 78.0886 46.3878 77.3332C34.8952 72.3438 45.2138 55.7843 50.5371 50.0045C53.9643 46.289 59.3489 42.4882 64.7113 44.407C70.82 46.5825 68.6724 54.9719 66.4562 59.1692C62.1986 67.2158 54.7861 74.3954 46.4134 78.0872C44.6961 78.8384 46.1061 81.4211 47.8476 80.647Z" fill="white"/>
<path d="M46.8003 78.5709C48.8504 71.9442 52.8787 66.1509 56.6005 60.3724C57.6353 58.7777 55.1124 57.2226 54.1012 58.8179C50.2557 64.8048 46.1259 70.8541 43.9984 77.714C43.4289 79.5103 46.2536 80.3914 46.8003 78.5709Z" fill="white"/>
<path d="M27.6976 68.7964C27.126 63.2483 26.3891 57.7189 25.3213 52.2271C24.111 45.9545 22.7083 38.9937 19.1897 33.5496C17.9491 31.6309 16.2835 29.7472 13.9671 29.2102C11.4167 28.6194 9.02298 29.9634 7.20818 31.6534C4.35319 34.3024 2.03744 37.8614 1.3153 41.7013C0.482878 46.103 1.29582 50.6223 2.94522 54.7183C6.48676 63.4822 15.1345 72.4155 25.3812 70.7311C27.2504 70.4314 26.5316 67.5626 24.6859 67.8629C16.6871 69.1879 9.82454 62.071 6.54793 55.5745C4.74253 51.992 3.63442 47.9114 3.96119 43.8955C4.25301 40.2787 6.03888 37.1283 8.49246 34.5149C9.29395 33.6669 10.1896 32.8215 11.2634 32.3343C11.9318 32.0239 12.6882 31.9278 13.1797 32.036C14.7484 32.3633 15.9534 33.8808 16.8752 35.4137C19.8896 40.3726 21.1524 46.4584 22.2874 52.0698C22.9464 55.3842 23.487 58.7187 23.957 62.0513C24.1318 63.351 24.3067 64.6507 24.4573 65.9732C24.5118 66.5397 24.5904 67.0834 24.6449 67.6499C24.7014 68.1458 24.7377 68.5235 24.7558 68.7123C24.9616 70.5779 27.9027 70.6855 27.6976 68.7964Z" fill="white"/>
<path d="M25.1735 67.9935C21.7732 62.5292 19.52 56.4857 16.8357 50.6888C16.0369 48.9711 13.4529 50.3803 14.2517 52.098C16.9359 57.8949 19.1891 63.9384 22.5895 69.4027C23.5799 71.0082 26.1875 69.5997 25.1735 67.9935Z" fill="white"/>
<path d="M42.2218 40.2584C47.1263 34.3017 52.3824 27.5784 53.6895 19.7535C54.4856 14.9741 54.3249 9.06102 51.7617 4.79768C50.6597 2.97715 49.0056 1.51748 46.8216 1.29027C44.3089 1.03013 42.0079 2.42383 40.1279 3.92372C35.2342 7.85621 33.6285 14.5898 33.6924 20.5942C33.7637 27.1639 35.5153 34.2759 39.58 39.5708C40.7385 41.0634 42.8693 39.0293 41.7101 37.5602C38.7348 33.7088 37.3288 28.5134 36.8056 23.7434C36.2468 18.5722 36.7646 12.8197 39.8569 8.45913C41.7961 5.71333 46.4222 2.07921 49.0197 5.9669C51.3018 9.35124 51.3946 14.3443 50.9529 18.2629C50.0781 25.7941 44.8711 32.4483 40.2107 38.1058C39.0152 39.5547 41.0263 41.7072 42.2218 40.2584Z" fill="white"/>
<path d="M42.722 37.4444C42.8794 31.9406 43.6237 26.5007 43.781 20.9969C43.8348 19.1152 40.8937 19.0076 40.8393 20.9128C40.6819 26.4166 39.9376 31.8565 39.7803 37.3604C39.7258 39.2655 42.6676 39.3496 42.722 37.4444Z" fill="white"/>
</svg>
