<svg width="75" height="99" viewBox="0 0 75 99" fill="none" xmlns="http://www.w3.org/2000/svg">
<path d="M3.32783 42.6026C7.48032 64.438 21.7187 89.6779 44.8412 95.2793C45.4705 95.4349 46.048 94.9399 46.2064 94.3474C47.832 88.0074 46.187 80.9743 44.5901 74.779C42.691 67.3733 40.112 60.5829 35.809 54.2106C31.8447 48.3351 27.1401 43.9589 20.889 40.5852C17.7627 38.889 14.49 37.4665 11.2046 36.1197C9.7365 35.5259 8.24982 34.9336 6.76463 34.3599C5.723 33.9566 4.58038 33.2247 3.44724 33.315C2.77851 33.3683 2.37566 33.9429 2.38742 34.5593C2.38088 37.2909 3.05721 39.9119 3.32783 42.6026C3.48354 44.0867 5.80702 43.9201 5.64983 42.4175C5.37921 39.7267 4.70288 37.1057 4.69232 34.3942C4.33335 34.8157 3.97437 35.2371 3.63249 35.6385C4.39411 35.5778 6.1608 36.6341 6.99069 36.9607C8.38004 37.5047 9.77086 38.0672 11.1431 38.6312C14.1008 39.8544 17.0459 41.1535 19.8602 42.6874C25.878 45.9488 30.3107 50.197 34.1101 55.8799C38.0788 61.8113 40.4306 68.096 42.2294 74.9485C43.8071 80.9021 45.4774 87.7836 43.9098 93.9132C44.3705 93.5959 44.8142 93.2986 45.2749 92.9813C34.142 90.2774 25.2467 82.3446 18.7591 73.1909C12.293 64.073 7.74055 53.3995 5.64835 42.3989C5.36557 40.9624 3.04208 41.129 3.32783 42.6026Z" fill="#5B7580"/>
<path d="M4.50198 37.4024C12.9208 46.1589 20.2933 55.8593 27.0065 65.9677C29.896 70.3202 32.9779 74.5078 35.9914 78.7756C39.1327 83.239 42.2375 87.9485 43.5634 93.3236C43.922 94.7728 46.1208 93.9802 45.7622 92.531C44.4712 87.3589 41.5781 82.726 38.5787 78.401C35.3884 73.7918 32.0413 69.3261 28.9394 64.6538C22.0999 54.3685 14.5885 44.5669 6.02631 35.6535C4.967 34.5595 3.4642 36.3441 4.50198 37.4024Z" fill="#5B7580"/>
<path d="M39.8017 88.1231C30.5195 79.3232 20.8814 70.5143 14.6134 59.192C13.8922 57.8839 11.9794 59.2149 12.7006 60.5229C19.0562 72.0066 28.8562 80.971 38.2789 89.8907C39.3709 90.9259 40.8752 89.1599 39.8017 88.1231Z" fill="#5B7580"/>
<path d="M36.7914 67.7131C33.2998 61.2013 28.4208 55.8102 23.3961 50.4682C22.3739 49.3712 20.8711 51.1558 21.8918 52.2342C26.7947 57.4551 31.4947 62.7108 34.8971 69.0427C35.5826 70.3722 37.494 69.0227 36.7914 67.7131Z" fill="#5B7580"/>
<path d="M15.488 54.4458C13.9951 51.6654 12.8247 48.7096 11.0807 46.0615C10.739 45.5276 9.96403 45.421 9.45052 45.78C8.91844 46.1404 8.80905 46.8787 9.1693 47.4111C10.9134 50.0592 12.0837 53.015 13.5766 55.7953C13.8826 56.3508 14.7289 56.4143 15.2068 56.0769C15.7545 55.6778 15.7754 55.0027 15.488 54.4458Z" fill="#5B7580"/>
<path d="M9.15487 13.7055C22.7529 31.3833 46.7938 47.3306 69.9923 41.9268C70.6537 41.7806 70.8143 40.9821 70.6956 40.4304C69.2622 33.9415 64.4753 28.2999 60.201 23.4592C55.475 18.112 50.5282 13.512 44.315 9.91077C38.0818 6.29246 31.8817 4.26151 24.6603 3.95811C20.9467 3.80526 17.224 4.00854 13.5088 4.30475C11.8556 4.43657 10.1852 4.58847 8.53342 4.73887C7.36462 4.85077 6.00787 4.71576 4.99202 5.33923C4.59965 5.57627 4.33572 6.25202 4.55853 6.7019C5.80776 9.23982 7.63886 11.3385 9.15487 13.7055C9.96598 14.969 11.8788 13.638 11.0677 12.3745C9.67799 10.1845 7.91446 8.23009 6.73875 5.91077C6.58856 6.37169 6.45546 6.81255 6.30527 7.27346C6.94733 6.88556 9.18307 7.0253 10.0933 6.95273C11.6522 6.80973 13.2111 6.66673 14.773 6.5609C18.1181 6.31289 21.4707 6.15783 24.8284 6.30164C31.7311 6.59305 37.6786 8.73766 43.6012 12.2124C49.5053 15.6886 54.2003 20.1777 58.6841 25.3011C62.6947 29.8822 67.1346 35.1587 68.4797 41.2431C68.7198 40.7376 68.9428 40.2521 69.1829 39.7466C58.0235 42.3386 46.5021 39.2168 36.5868 33.9654C26.7101 28.7296 17.869 21.2413 11.0692 12.3931C10.1511 11.1943 8.23823 12.5253 9.15487 13.7055Z" fill="#5B7580"/>
<path d="M7.59177 8.40668C19.4006 12.5531 30.6429 18.0355 41.4942 24.2411C45.9607 26.8031 50.5722 29.0729 55.1026 31.4989C59.6532 33.9419 64.3173 36.6378 67.7173 40.5943C68.6852 41.7143 70.5995 40.4019 69.6301 39.2633C62.9535 31.4902 52.6544 27.9903 43.9932 22.9943C32.685 16.451 20.9487 10.6339 8.602 6.3059C7.19852 5.81921 6.1883 7.91999 7.59177 8.40668Z" fill="#5B7580"/>
<path d="M62.1335 37.8229C49.9917 34.1893 37.4702 30.717 26.8762 23.5181C25.6504 22.6806 24.1276 24.4481 25.3719 25.2842C36.3226 32.7352 49.136 36.3526 61.6998 40.1208C63.136 40.5488 63.5511 38.2523 62.1335 37.8229Z" fill="#5B7580"/>
<path d="M50.4987 21.1082C44.4395 16.8588 37.7046 14.2158 30.7927 11.6991C29.3878 11.1938 28.3775 13.2946 29.7825 13.7999C36.4826 16.2399 43.0957 18.7617 48.9945 22.8743C50.2218 23.7304 51.726 21.9644 50.4987 21.1082Z" fill="#5B7580"/>
<path d="M25.5111 18.8713C22.8389 17.008 20.3858 14.8467 17.5456 13.2213C17.0174 12.9267 16.2364 13.2134 15.9807 13.7576C15.7123 14.3775 15.967 14.9932 16.5168 15.3235C17.2211 15.7163 17.7337 16.0495 18.3466 16.4683C18.9996 16.9213 19.6356 17.3944 20.2715 17.8674C21.5047 18.7979 22.7023 19.75 23.9697 20.6403C24.4652 20.9936 25.1986 21.0474 25.6044 20.51C25.999 20.067 26.0468 19.2588 25.5111 18.8713Z" fill="#5B7580"/>
</svg>
